<svg xmlns="http://www.w3.org/2000/svg" viewBox="0 0 231 289" fill="none">
  <path fill="#7dd87d" d="M230.809 115.385V249.411C230.809 269.923 214.985 287.282 194.495 288.411C184.544 288.949 175.364 285.718 168.26 280C159.746 273.154 147.769 273.461 139.178 280.23C132.638 285.384 124.381 288.462 115.379 288.462C106.377 288.462 98.1451 285.384 91.6055 280.23C82.912 273.385 70.9353 273.385 62.2415 280.23C55.7532 285.334 47.598 288.411 38.7246 288.462C17.4132 288.615 0 270.667 0 249.359V115.385C0 51.6667 51.6756 0 115.404 0C179.134 0 230.809 51.6667 230.809 115.385Z"/>
  <ellipse cx="80" cy="120" rx="20" ry="30" fill="#111111"/>
  <ellipse cx="150" cy="120" rx="20" ry="30" fill="#111111"/>
</svg>
<svg xmlns="http://www.w3.org/2000/svg" xmlns:xlink="http://www.w3.org/1999/xlink" width="512" height="512" viewBox="0 0 375 375" preserveAspectRatio="xMidYMid meet" version="1.0">
  <defs>
    <linearGradient id="logo-grad" x1="0%" y1="0%" x2="100%" y2="100%">
      <stop offset="0%" stop-color="#ec4899" />
      <stop offset="100%" stop-color="#8b5cf6" />
    </linearGradient>
  </defs>
  <path fill="url(#logo-grad)" d="M 163.878906 60.996094 C 162.46875 61.304688 159.632812 62.375 157.574219 63.375 C 154.546875 64.839844 153.3125 65.699219 151.125 67.855469 C 147.941406 71 145.328125 75.207031 144.195312 79.019531 L 143.402344 81.6875 L 141.738281 81.402344 C 140.824219 81.246094 138.261719 81.121094 136.046875 81.132812 C 132.828125 81.144531 131.582031 81.308594 129.847656 81.949219 C 124.214844 84.035156 119.617188 88.179688 117.007812 93.519531 C 114.875 97.878906 114.089844 101.777344 114.355469 106.640625 L 114.554688 110.21875 L 111.933594 111 C 103.492188 113.511719 97.976562 119.164062 95.164062 128.183594 C 94.464844 130.425781 94.316406 131.710938 94.328125 135.316406 C 94.34375 140.269531 94.902344 142.855469 96.875 147.132812 L 98.105469 149.796875 L 97.050781 152.273438 C 96.121094 154.460938 95.253906 158.085938 94.648438 162.308594 C 94.488281 163.433594 94.097656 163.9375 92.367188 165.253906 C 89.757812 167.234375 88.78125 168.664062 88.507812 170.910156 C 88.21875 173.265625 88.808594 183.765625 89.296875 185.007812 C 89.902344 186.539062 92.207031 188.882812 93.5 189.289062 C 94.140625 189.492188 95.820312 189.765625 97.230469 189.898438 C 99.921875 190.152344 101.160156 190.6875 101.796875 191.875 C 102.003906 192.265625 102.675781 196.34375 103.285156 200.9375 C 106.359375 224.113281 116.925781 296.191406 117.910156 300.707031 C 118.804688 304.800781 120.011719 307.136719 122.488281 309.574219 C 128.113281 315.109375 138.503906 317.84375 159.667969 319.355469 C 167.21875 319.890625 190.4375 319.894531 198.484375 319.355469 C 227.269531 317.429688 238.566406 313.109375 241.527344 302.890625 C 242.195312 300.585938 244.347656 286.457031 249.757812 248.839844 C 254.550781 215.507812 257.796875 193.363281 258.023438 192.457031 C 258.445312 190.78125 259.738281 190.023438 262.8125 189.65625 C 266.207031 189.246094 268.128906 188.121094 269.316406 185.851562 C 270.019531 184.503906 270.082031 183.78125 270.082031 176.878906 C 270.082031 169.964844 270.019531 169.269531 269.328125 168.09375 C 268.378906 166.472656 266.691406 165.328125 264.816406 165.027344 C 262.847656 164.714844 262.066406 163.605469 261.511719 160.339844 C 259.707031 149.78125 254.558594 140.617188 245.160156 131.234375 L 241.4375 127.515625 L 245.957031 112.496094 C 248.441406 104.234375 250.8125 96.570312 251.226562 95.464844 C 252.046875 93.273438 254.230469 90.550781 256.082031 89.40625 C 256.734375 89.007812 264.171875 85.945312 272.613281 82.605469 C 281.058594 79.265625 288.515625 76.109375 289.1875 75.597656 C 292.582031 73.007812 292.746094 67.828125 289.507812 65.359375 C 288.871094 64.871094 287.53125 64.285156 286.539062 64.054688 C 284.808594 63.65625 284.539062 63.710938 280.335938 65.296875 C 268.398438 69.796875 251.398438 76.578125 250.011719 77.390625 C 245.648438 79.949219 241.605469 84.5 239.367188 89.371094 C 238.679688 90.875 236.761719 96.304688 235.105469 101.441406 C 233.453125 106.578125 232.042969 110.839844 231.976562 110.910156 C 231.90625 110.980469 231.355469 110.6875 230.746094 110.253906 C 230.136719 109.816406 228.289062 108.832031 226.648438 108.058594 L 223.660156 106.652344 L 223.726562 103.027344 C 223.871094 95.246094 221.863281 89.996094 216.808594 84.953125 C 213.363281 81.507812 210.613281 79.898438 206.523438 78.9375 C 203.9375 78.328125 198.363281 78.203125 196.195312 78.707031 L 194.824219 79.023438 L 193.414062 76.042969 C 189.886719 68.574219 183.738281 63.390625 175.964844 61.324219 C 172.753906 60.472656 166.988281 60.316406 163.878906 60.996094 M 164.535156 71.578125 C 162.125 72.328125 160.011719 73.722656 157.902344 75.953125 C 153.839844 80.25 152.570312 85.769531 154.382812 91.253906 C 154.898438 92.816406 154.898438 93.074219 154.355469 94.121094 C 153.730469 95.324219 151.933594 96.3125 150.363281 96.3125 C 149.867188 96.3125 148.421875 95.574219 147.148438 94.675781 C 142.695312 91.515625 141.511719 91.035156 138.230469 91.039062 C 135.699219 91.042969 134.941406 91.207031 132.820312 92.199219 C 127.046875 94.902344 123.65625 100.917969 124.519531 106.933594 C 124.898438 109.582031 125.363281 110.710938 126.988281 112.925781 C 128.007812 114.3125 128.332031 115.101562 128.304688 116.121094 C 128.25 118.191406 127.105469 120.195312 125.535156 120.964844 C 124.339844 121.546875 123.921875 121.574219 121.960938 121.1875 C 118.761719 120.558594 115.234375 120.90625 112.726562 122.089844 C 110.230469 123.273438 107.070312 126.324219 105.886719 128.699219 C 103.96875 132.542969 104.007812 138.492188 105.984375 142.386719 C 106.933594 144.261719 109.785156 147.144531 111.636719 148.101562 C 112.273438 148.429688 112.792969 148.878906 112.792969 149.097656 C 112.792969 149.316406 112.070312 150.457031 111.1875 151.632812 C 108.621094 155.046875 108.128906 158.84375 109.824219 162.140625 C 111.398438 165.203125 114.078125 166.625 118.273438 166.625 C 122.984375 166.625 125.808594 165.136719 129.375 160.773438 C 132.535156 156.90625 134.039062 156.875 138.832031 160.59375 C 141.859375 162.945312 143.09375 163.558594 145.859375 164.082031 C 148.195312 164.527344 152.144531 164.035156 155.078125 162.9375 C 157.777344 161.925781 161.410156 158.550781 163.398438 155.203125 C 165.394531 151.839844 166.203125 151.246094 168.78125 151.246094 L 170.835938 151.246094 L 173.621094 154.167969 C 177.382812 158.113281 180.019531 159.394531 184.820312 159.605469 C 187.503906 159.722656 188.703125 159.597656 190.730469 158.980469 C 193.519531 158.132812 196.800781 155.945312 198.867188 153.554688 C 199.5625 152.746094 200.464844 151.917969 200.867188 151.710938 C 201.269531 151.5 203.90625 151.21875 206.726562 151.082031 C 215.914062 150.628906 218.476562 149.898438 219.359375 147.480469 C 219.597656 146.832031 221.667969 140.882812 223.960938 134.261719 C 227.125 125.117188 228.042969 122.066406 227.773438 121.5625 C 227.183594 120.460938 224.382812 118.367188 222.117188 117.328125 C 219.550781 116.152344 215.761719 115.769531 213.648438 116.46875 C 212.863281 116.726562 211.535156 117.644531 210.691406 118.511719 C 208.308594 120.96875 206.046875 121.121094 204.703125 118.917969 C 203.496094 116.941406 203.390625 115.429688 204.339844 113.644531 C 205.386719 111.667969 208.191406 109.023438 210.335938 107.980469 C 212.570312 106.894531 213.316406 105.207031 213.316406 101.257812 C 213.316406 98.660156 213.175781 98.019531 212.097656 95.835938 C 211.429688 94.476562 210.089844 92.570312 209.121094 91.601562 C 204.503906 86.984375 198.464844 86.765625 192.835938 91.011719 C 190.367188 92.878906 188.820312 93.121094 186.882812 91.9375 C 185.261719 90.949219 185.054688 90.390625 184.84375 86.425781 C 184.722656 84.15625 184.386719 82.246094 183.882812 80.933594 C 182.292969 76.785156 178.574219 73.152344 174.519531 71.78125 C 171.964844 70.917969 166.96875 70.816406 164.535156 71.578125 M 167.722656 100.960938 C 159.351562 102.363281 152.765625 108.808594 150.515625 117.808594 C 150.144531 119.289062 150.070312 119.351562 148.398438 119.570312 C 142.375 120.367188 139.933594 121.4375 136.761719 124.671875 C 135.160156 126.308594 133.988281 127.972656 132.890625 130.191406 C 131.441406 133.113281 131.304688 133.640625 131.167969 136.796875 C 130.875 143.523438 132.867188 147.867188 136.535156 148.488281 C 138.277344 148.78125 141.054688 147.738281 141.691406 146.542969 C 142.25 145.5 142.1875 143.707031 141.550781 142.476562 C 140.625 140.6875 140.496094 138.6875 141.160156 136.402344 C 141.652344 134.714844 142.203125 133.859375 143.890625 132.171875 C 147.378906 128.6875 150.179688 128.269531 156.15625 130.351562 C 159.074219 131.367188 160.175781 131.324219 161.097656 130.152344 C 162.253906 128.679688 162.390625 127.136719 161.53125 125.242188 C 159.875 121.59375 160.914062 117.003906 164.082031 113.957031 C 166.421875 111.710938 167.816406 111.144531 171.019531 111.144531 C 176.429688 111.144531 179.433594 113.996094 180.363281 120.015625 C 180.902344 123.507812 182.832031 124.222656 186.625 122.328125 C 189.15625 121.0625 190.433594 119.976562 190.421875 119.097656 C 190.40625 117.339844 189.226562 113.25 188.160156 111.230469 C 186.613281 108.308594 182.828125 104.527344 179.910156 102.980469 C 176.453125 101.152344 171.496094 100.328125 167.722656 100.960938 M 103.050781 182.902344 C 103.789062 185.851562 105.785156 188.234375 108.332031 189.21875 C 109.964844 189.847656 113.386719 189.878906 179.808594 189.878906 C 234.484375 189.878906 249.898438 189.78125 251.074219 189.421875 C 253.5625 188.664062 255.570312 186.949219 256.601562 184.703125 C 257.105469 183.597656 257.410156 182.578125 257.269531 182.441406 C 257.132812 182.304688 222.324219 182.148438 179.921875 182.097656 L 102.824219 182 Z M 119.570312 208.605469 C 119.796875 209.890625 126.042969 253.847656 128.332031 270.261719 C 130.761719 287.667969 130.734375 287.488281 131.328125 289.617188 C 131.632812 290.695312 132.234375 292.125 132.675781 292.792969 C 133.984375 294.789062 137.910156 296.996094 140.15625 296.996094 C 141.222656 296.996094 141.425781 299.234375 138.222656 275.574219 C 136.941406 266.105469 135.144531 252.800781 134.230469 246.003906 C 133.316406 239.203125 131.820312 228.097656 130.910156 221.320312 C 129.996094 214.546875 129.175781 208.882812 129.089844 208.738281 C 129 208.59375 127.480469 208.367188 125.710938 208.234375 C 123.945312 208.097656 121.796875 207.894531 120.941406 207.773438 C 119.394531 207.558594 119.386719 207.5625 119.570312 208.605469" fill-opacity="1" fill-rule="evenodd" />
</svg>
